solid OpenSCAD_Model
  facet normal -1 0 0
    outer loop
      vertex 0 0 0
      vertex 0 10 11
      vertex 0 10 0
    endloop
  endfacet
  facet normal -1 -0 0
    outer loop
      vertex 0 10 11
      vertex 0 0 0
      vertex 0 0 11
    endloop
  endfacet
  facet normal -0 0 1
    outer loop
      vertex 0 10 11
      vertex 2.5 0 11
      vertex 2.5 10 11
    endloop
  endfacet
  facet normal 0 0 1
    outer loop
      vertex 2.5 0 11
      vertex 0 10 11
      vertex 0 0 11
    endloop
  endfacet
  facet normal 1 -0 0
    outer loop
      vertex 2.5 0 11
      vertex 2.5 10 1
      vertex 2.5 10 11
    endloop
  endfacet
  facet normal 1 0 0
    outer loop
      vertex 2.5 10 1
      vertex 2.5 0 11
      vertex 2.5 0 1
    endloop
  endfacet
  facet normal 0 1 0
    outer loop
      vertex 80 10 11
      vertex 77.5 10 1
      vertex 77.5 10 11
    endloop
  endfacet
  facet normal 0 1 0
    outer loop
      vertex 80 10 0
      vertex 37.5 10 1
      vertex 77.5 10 1
    endloop
  endfacet
  facet normal 0 1 0
    outer loop
      vertex 37.5 10 1
      vertex 80 10 0
      vertex 35 10 1
    endloop
  endfacet
  facet normal 0 1 0
    outer loop
      vertex 0 10 0
      vertex 35 10 1
      vertex 80 10 0
    endloop
  endfacet
  facet normal 0 1 0
    outer loop
      vertex 35 10 1
      vertex 0 10 0
      vertex 15 10 1
    endloop
  endfacet
  facet normal 0 1 0
    outer loop
      vertex 15 10 1
      vertex 0 10 0
      vertex 12.5 10 1
    endloop
  endfacet
  facet normal 0 1 -0
    outer loop
      vertex 80 10 0
      vertex 77.5 10 1
      vertex 80 10 11
    endloop
  endfacet
  facet normal 0 1 -0
    outer loop
      vertex 37.5 10 1
      vertex 35 10 11
      vertex 37.5 10 11
    endloop
  endfacet
  facet normal 0 1 0
    outer loop
      vertex 35 10 11
      vertex 37.5 10 1
      vertex 35 10 1
    endloop
  endfacet
  facet normal 0 1 -0
    outer loop
      vertex 15 10 1
      vertex 12.5 10 11
      vertex 15 10 11
    endloop
  endfacet
  facet normal 0 1 0
    outer loop
      vertex 12.5 10 11
      vertex 15 10 1
      vertex 12.5 10 1
    endloop
  endfacet
  facet normal 0 1 -0
    outer loop
      vertex 2.5 10 1
      vertex 0 10 11
      vertex 2.5 10 11
    endloop
  endfacet
  facet normal 0 1 0
    outer loop
      vertex 2.5 10 1
      vertex 0 10 0
      vertex 0 10 11
    endloop
  endfacet
  facet normal 0 1 0
    outer loop
      vertex 12.5 10 1
      vertex 0 10 0
      vertex 2.5 10 1
    endloop
  endfacet
  facet normal -0 0 1
    outer loop
      vertex 37.5 10 1
      vertex 77.5 0 1
      vertex 77.5 10 1
    endloop
  endfacet
  facet normal 0 0 1
    outer loop
      vertex 77.5 0 1
      vertex 37.5 10 1
      vertex 37.5 0 1
    endloop
  endfacet
  facet normal -0 0 1
    outer loop
      vertex 15 10 1
      vertex 35 0 1
      vertex 35 10 1
    endloop
  endfacet
  facet normal 0 0 1
    outer loop
      vertex 35 0 1
      vertex 15 10 1
      vertex 15 0 1
    endloop
  endfacet
  facet normal -0 0 1
    outer loop
      vertex 2.5 10 1
      vertex 12.5 0 1
      vertex 12.5 10 1
    endloop
  endfacet
  facet normal 0 0 1
    outer loop
      vertex 12.5 0 1
      vertex 2.5 10 1
      vertex 2.5 0 1
    endloop
  endfacet
  facet normal 0 -1 0
    outer loop
      vertex 0 0 11
      vertex 2.5 0 1
      vertex 2.5 0 11
    endloop
  endfacet
  facet normal 0 -1 0
    outer loop
      vertex 0 0 0
      vertex 12.5 0 1
      vertex 2.5 0 1
    endloop
  endfacet
  facet normal 0 -1 -0
    outer loop
      vertex 12.5 0 1
      vertex 0 0 0
      vertex 15 0 1
    endloop
  endfacet
  facet normal 0 -1 -0
    outer loop
      vertex 15 0 1
      vertex 0 0 0
      vertex 35 0 1
    endloop
  endfacet
  facet normal 0 -1 -0
    outer loop
      vertex 35 0 1
      vertex 0 0 0
      vertex 37.5 0 1
    endloop
  endfacet
  facet normal 0 -1 0
    outer loop
      vertex 80 0 0
      vertex 37.5 0 1
      vertex 0 0 0
    endloop
  endfacet
  facet normal 0 -1 0
    outer loop
      vertex 0 0 0
      vertex 2.5 0 1
      vertex 0 0 11
    endloop
  endfacet
  facet normal 0 -1 0
    outer loop
      vertex 12.5 0 1
      vertex 15 0 11
      vertex 12.5 0 11
    endloop
  endfacet
  facet normal 0 -1 -0
    outer loop
      vertex 15 0 11
      vertex 12.5 0 1
      vertex 15 0 1
    endloop
  endfacet
  facet normal 0 -1 0
    outer loop
      vertex 35 0 1
      vertex 37.5 0 11
      vertex 35 0 11
    endloop
  endfacet
  facet normal 0 -1 -0
    outer loop
      vertex 37.5 0 11
      vertex 35 0 1
      vertex 37.5 0 1
    endloop
  endfacet
  facet normal 0 -1 0
    outer loop
      vertex 77.5 0 1
      vertex 80 0 11
      vertex 77.5 0 11
    endloop
  endfacet
  facet normal 0 -1 0
    outer loop
      vertex 77.5 0 1
      vertex 80 0 0
      vertex 80 0 11
    endloop
  endfacet
  facet normal 0 -1 0
    outer loop
      vertex 37.5 0 1
      vertex 80 0 0
      vertex 77.5 0 1
    endloop
  endfacet
  facet normal -1 0 0
    outer loop
      vertex 12.5 0 1
      vertex 12.5 10 11
      vertex 12.5 10 1
    endloop
  endfacet
  facet normal -1 -0 0
    outer loop
      vertex 12.5 10 11
      vertex 12.5 0 1
      vertex 12.5 0 11
    endloop
  endfacet
  facet normal -0 0 1
    outer loop
      vertex 12.5 10 11
      vertex 15 0 11
      vertex 15 10 11
    endloop
  endfacet
  facet normal 0 0 1
    outer loop
      vertex 15 0 11
      vertex 12.5 10 11
      vertex 12.5 0 11
    endloop
  endfacet
  facet normal 1 -0 0
    outer loop
      vertex 15 0 11
      vertex 15 10 1
      vertex 15 10 11
    endloop
  endfacet
  facet normal 1 0 0
    outer loop
      vertex 15 10 1
      vertex 15 0 11
      vertex 15 0 1
    endloop
  endfacet
  facet normal -1 0 0
    outer loop
      vertex 35 0 1
      vertex 35 10 11
      vertex 35 10 1
    endloop
  endfacet
  facet normal -1 -0 0
    outer loop
      vertex 35 10 11
      vertex 35 0 1
      vertex 35 0 11
    endloop
  endfacet
  facet normal -0 0 1
    outer loop
      vertex 35 10 11
      vertex 37.5 0 11
      vertex 37.5 10 11
    endloop
  endfacet
  facet normal 0 0 1
    outer loop
      vertex 37.5 0 11
      vertex 35 10 11
      vertex 35 0 11
    endloop
  endfacet
  facet normal 1 -0 0
    outer loop
      vertex 37.5 0 11
      vertex 37.5 10 1
      vertex 37.5 10 11
    endloop
  endfacet
  facet normal 1 0 0
    outer loop
      vertex 37.5 10 1
      vertex 37.5 0 11
      vertex 37.5 0 1
    endloop
  endfacet
  facet normal -1 0 0
    outer loop
      vertex 77.5 0 1
      vertex 77.5 10 11
      vertex 77.5 10 1
    endloop
  endfacet
  facet normal -1 -0 0
    outer loop
      vertex 77.5 10 11
      vertex 77.5 0 1
      vertex 77.5 0 11
    endloop
  endfacet
  facet normal -0 0 1
    outer loop
      vertex 77.5 10 11
      vertex 80 0 11
      vertex 80 10 11
    endloop
  endfacet
  facet normal 0 0 1
    outer loop
      vertex 80 0 11
      vertex 77.5 10 11
      vertex 77.5 0 11
    endloop
  endfacet
  facet normal 1 -0 0
    outer loop
      vertex 80 0 11
      vertex 80 10 0
      vertex 80 10 11
    endloop
  endfacet
  facet normal 1 0 0
    outer loop
      vertex 80 10 0
      vertex 80 0 11
      vertex 80 0 0
    endloop
  endfacet
  facet normal 0 0 -1
    outer loop
      vertex 0 0 0
      vertex 80 10 0
      vertex 80 0 0
    endloop
  endfacet
  facet normal -0 0 -1
    outer loop
      vertex 80 10 0
      vertex 0 0 0
      vertex 0 10 0
    endloop
  endfacet
endsolid OpenSCAD_Model
